<?xml version="1.0" encoding="UTF-8" standalone="no"?><svg width="13" height="14" viewBox="0 0 23 24" xmlns="http://www.w3.org/2000/svg" xmlns:xlink="http://www.w3.org/1999/xlink"><defs><path id="ewa" d="M9.697 19.394H0V0h19.394v19.394z"/></defs><g fill="none" fill-rule="evenodd"><path d="M13.67 1.703l7.208.251a1.134 1.134 0 011.09 1.17l-.252 7.207m-.635-7.473l-8.391 7.825" stroke="#546E98" stroke-width="2" stroke-linecap="round" stroke-linejoin="round"/><g transform="translate(0 4.5)"><mask id="ewb" fill="#fff"><use xlink:href="#ewa"/></mask><path d="M17.227 15.602c0 .896-.729 1.625-1.625 1.625H3.792c-.896 0-1.625-.729-1.625-1.625V3.792c0-.896.729-1.625 1.625-1.625h4.821V0H3.792C1.7 0 0 1.7 0 3.792v11.81c0 2.09 1.7 3.792 3.792 3.792h11.81c2.09 0 3.792-1.701 3.792-3.792V10.78h-2.167v4.822z" fill="#546E98" mask="url(#ewb)"/></g></g></svg>