<?xml version="1.0" encoding="utf-8"?><svg id="abLayer_1" data-name="Layer 1" xmlns="http://www.w3.org/2000/svg" viewBox="0 0 120.38 40.79" width="120.38" height="40.79"><defs><style>.abcls-1,.abcls-2{fill-rule:evenodd;fill:#fff}</style></defs><g id="abPage-1"><g id="abCP-111-DSEP-related-article-03TL"><g id="abGroup"><g id="abCP-111-:-related-article-manual-:-B-:-TL"><g id="abfeatured-"><g id="abcircle-:-content"><g id="abcontent-"><g id="abtext-"><g id="ablogo-"><path id="abFill-1" class="abcls-1" d="M19.34 24.78c-5.55 3.39-9.3 5-13.3 4.86h-.47c-.03 0 .58.53.58.53a18.78 18.78 0 007 2.54 13.61 13.61 0 004.36.07c.86-.19.92-.09 1 0s.07.35-.6.61a11.81 11.81 0 01-3 .72A44 44 0 012 33.51l-1.28-.28a.26.26 0 00-.15 0 .07.07 0 00-.06.09c0 .09.27.25.32.28 25 16.6 30.75 1.21 32.4-1.8s2.45-3.68 3.62-4c.19-.06.38-.09.37-.22s-.17-.17-.17-.17l-.76-.52c-2.67-2.08-5.13-.67-7.37 1.73s-2.8 2.13-2.27 1.3c2.32-3.44-.18-5.3-.18-5.3a4.57 4.57 0 00-3.07-1 7.93 7.93 0 00-4.06 1.21z" transform="translate(-.51 -.4)"/><path id="abFill-8" class="abcls-1" d="M72.73 18.87l-1-.7c-3.63-2.83-7-.92-10 2.36s-3.81 2.9-3.08 1.76c3.15-4.67-.25-7.21-.25-7.21a6.24 6.24 0 00-4.18-1.39 10.61 10.61 0 00-5.51 1.66C41.1 20 36 22.11 30.55 22h-.34c-.07 0-.26-.05-.29 0s.78.72.78.72a25.55 25.55 0 009.49 3.45 18.29 18.29 0 005.94.1c1.17-.26 1.26-.12 1.32 0s.1.46-.81.83a16.71 16.71 0 01-4.06 1 34.18 34.18 0 01-4.33.33 2.59 2.59 0 00-1 .3 4.1 4.1 0 00-1.4 1 25.81 25.81 0 00-2.16 3.6c25.38 12.26 31.81-4.73 33.82-8.38 2.25-4.09 3.33-5 4.92-5.49.26-.08.51-.11.5-.3s-.23-.23-.23-.23" transform="translate(-.51 -.4)"/><path id="abFill-10" class="abcls-2" d="M120.56 7.44l-1.39-1c-5-3.84-9.5-1.24-13.64 3.21s-5.18 3.94-4.2 2.4c4.3-6.36-.33-9.81-.33-9.81A8.52 8.52 0 0095.31.4a14.48 14.48 0 00-7.49 2.24c-10.27 6.27-17.21 9.2-24.61 9h-.47c-.09 0-.35-.07-.4 0-.12.27 1.07 1 1.07 1a34.5 34.5 0 0012.91 4.7 25.19 25.19 0 008.07.13c1.6-.35 1.71-.16 1.8 0s.13.63-1.11 1.13a23.1 23.1 0 01-5.51 1.33c-1.72.25-5.57.44-5.57.44s-.52.09-.84.18-.45.16-.76.28c-1.13.45-2 1.76-2.78 3a35.36 35.36 0 00-1.85 3.37c34.31 16.43 43-6.57 45.74-11.51 3.06-5.57 4.53-6.82 6.69-7.47.36-.11.69-.15.69-.41s-.33-.31-.33-.31" transform="translate(-.51 -.4)"/></g></g></g></g></g></g></g></g></g></svg>